<svg height="512pt" viewBox="0 -5 512.00031 512" width="512pt" xmlns="http://www.w3.org/2000/svg"><path d="m501 256c0 135.308594-109.691406 245-245 245-37.980469 0-73.9375-8.640625-106.023438-24.066406-11.503906-5.53125-55.09375-35.84375-65.003906-45.507813-45.636718-44.496093-73.972656-106.652343-73.972656-175.425781 0-135.308594 109.691406-245 245-245s245 109.691406 245 245zm0 0" fill="#6ad3d8"/><path d="m485.464844 170h-458.929688c8.105469-21.613281 19.167969-41.78125 32.707032-60h100.757812c5.523438 0 10-4.476562 10-10v-73.464844c12.855469-4.820312 26.222656-8.585937 40-11.203125v84.667969c0 5.523438 4.476562 10 10 10h232.757812c13.539063 18.21875 24.601563 38.386719 32.707032 60zm-468.480469 140c4.761719 21.167969 12.265625 41.296875 22.117187 60h180.898438c5.523438 0 10 4.476562 10 10v119.625c8.542969.902344 17.21875 1.375 26 1.375 4.699219 0 9.363281-.144531 14-.40625v-120.59375c0-5.523438 4.476562-10 10-10h192.898438c9.847656-18.703125 17.355468-38.832031 22.117187-60zm0 0" fill="#a3e2e5"/><path d="m210 370c0-22.054688 17.945312-40 40-40h70c5.523438 0 10 4.476562 10 10s-4.476562 10-10 10h-70c-11.027344 0-20 8.972656-20 20s8.972656 20 20 20h20c5.523438 0 10 4.476562 10 10s-4.476562 10-10 10h-20c-22.054688 0-40-17.945312-40-40zm180 20c-5.523438 0-10 4.476562-10 10s4.476562 10 10 10c11.027344 0 20 8.972656 20 20s-8.972656 20-20 20h-200c-5.523438 0-10 4.476562-10 10s4.476562 10 10 10h200c22.054688 0 40-17.945312 40-40s-17.945312-40-40-40zm-100 10c0 5.523438 4.476562 10 10 10s10-4.476562 10-10-4.476562-10-10-10-10 4.476562-10 10zm30 0c0 5.523438 4.476562 10 10 10s10-4.476562 10-10-4.476562-10-10-10-10 4.476562-10 10zm40 10c5.523438 0 10-4.476562 10-10s-4.476562-10-10-10-10 4.476562-10 10 4.476562 10 10 10zm31.601562-30c22.089844 0 40-17.910156 40-40s-17.910156-40-40-40c-22.089843 0-40 17.910156-40 40s17.910157 40 40 40zm-271.203124 30c-15.378907 0-28.722657 8.683594-35.417969 21.410156 18.949219 18.476563 40.871093 33.921875 64.996093 45.519532 6.472657-7.109376 10.421876-16.558594 10.421876-26.929688 0-22.089844-17.910157-40-40-40zm0 0" fill="#3691bb"/><path d="m383.378906 324.132812-91.734375-136.625c-32.074219-47.769531-25.863281-111.558593 14.824219-152.246093 47.015625-47.015625 123.25-47.015625 170.265625 0 40.6875 40.6875 46.898437 104.476562 14.824219 152.246093l-91.734375 136.625c-3.925781 5.84375-12.523438 5.84375-16.445313 0zm0 0" fill="#fc6930"/><path d="m476.734375 35.261719c40.6875 40.6875 46.898437 104.476562 14.824219 152.246093l-84.234375 125.453126-84.234375-125.453126c-32.074219-47.769531-25.863282-111.558593 14.820312-152.246093 19.503906-19.5 44.03125-30.902344 69.414063-34.226563 25.382812 3.324219 49.910156 14.726563 69.410156 34.226563zm0 0" fill="#fd7d43"/><path d="m391.601562 47.449219c-39.3125 0-71.175781 31.867187-71.175781 71.175781 0 39.3125 31.867188 71.175781 71.175781 71.175781 39.308594 0 71.175782-31.863281 71.175782-71.175781 0-39.308594-31.867188-71.175781-71.175782-71.175781zm0 115.238281c-24.335937 0-44.0625-19.726562-44.0625-44.0625 0-24.332031 19.726563-44.058594 44.0625-44.058594 24.335938 0 44.0625 19.726563 44.0625 44.058594 0 24.335938-19.726562 44.0625-44.0625 44.0625zm30.503907-44.0625c0 16.847656-13.65625 30.503906-30.503907 30.503906-16.847656 0-30.503906-13.65625-30.503906-30.503906 0-16.84375 13.65625-30.503906 30.503906-30.503906 16.847657 0 30.503907 13.660156 30.503907 30.503906zm0 0" fill="#fc5426"/><path d="m112.175781 429.488281-91.734375-136.621093c-32.074218-47.773438-25.863281-111.5625 14.824219-152.246094 47.019531-47.019532 123.25-47.019532 170.265625 0 40.6875 40.6875 46.898438 104.472656 14.824219 152.246094l-91.734375 136.621093c-3.921875 5.84375-12.519532 5.84375-16.445313 0zm0 0" fill="#fda800"/><path d="m205.53125 140.621094c40.6875 40.6875 46.898438 104.472656 14.824219 152.246094l-84.234375 125.453124-84.234375-125.453124c-32.074219-47.773438-25.863281-111.558594 14.824219-152.246094 19.5-19.503906 44.027343-30.90625 69.410156-34.230469 25.382812 3.324219 49.910156 14.726563 69.410156 34.230469zm0 0" fill="#fcb30b"/><path d="m210.398438 224.332031c0 30.449219-15.121094 57.371094-38.265626 73.65625-3.226562 2.269531-22.511718 11.777344-29.207031 13.503907-7.199219 1.855468-14.746093 2.839843-22.527343 2.839843-10.535157 0-20.644532-1.808593-30.039063-5.132812-5.089844-1.800781-24.707031-13.175781-29.203125-17.113281-18.851562-16.496094-30.757812-40.734376-30.757812-67.753907 0-49.703125 40.292968-90 90-90 49.707031 0 90 40.296875 90 90zm0 0" fill="#fc6930"/><path d="m107.464844 153.003906v53.816406c0 9.695313-4.351563 18.367188-11.207032 24.179688-3.738281 3.171875-5.898437 7.824219-5.898437 12.726562v65.464844c-10.835937-3.835937-20.722656-9.6875-29.203125-17.109375v-48.355469c0-4.902343-2.15625-9.554687-5.894531-12.726562-6.855469-5.8125-11.207031-14.484375-11.207031-24.179688v-53.816406c0-3.457031 2.800781-6.257812 6.257812-6.257812h4.171875c3.453125 0 6.257813 2.800781 6.257813 6.257812v40.46875c0 1.84375 1.492187 3.335938 3.335937 3.335938s3.335937-1.492188 3.335937-3.335938v-40.46875c0-3.457031 2.804688-6.257812 6.261719-6.257812h4.171875c3.453125 0 6.257813 2.800781 6.257813 6.257812v40.46875c0 1.84375 1.492187 3.335938 3.335937 3.335938s3.335938-1.492188 3.335938-3.335938v-40.46875c0-3.457031 2.800781-6.257812 6.257812-6.257812h4.171875c3.457031 0 6.257813 2.800781 6.257813 6.257812zm55.902344-6.257812h-11.679688c-18.429688 0-33.375 14.941406-33.375 33.375v29.203125c0 12.191406 6.539062 22.851562 16.300781 28.675781 5.105469 3.042969 8.3125 8.46875 8.3125 14.414062v59.078126c10.621094-2.738282 20.480469-7.371094 29.203125-13.507813v-45.570313c0-5.945312 3.210938-11.371093 8.316406-14.417968 9.761719-5.820313 16.296876-16.480469 16.296876-28.671875v-29.203125c0-18.433594-14.941407-33.375-33.375-33.375zm0 0" fill="#fff2b4"/><path d="m77.847656 243.726562v59.925782c-6.003906-3.226563-11.601562-7.117188-16.6875-11.570313v-48.355469c0-4.902343-2.160156-9.554687-5.898437-12.722656-6.855469-5.816406-11.207031-14.488281-11.207031-24.179687v-53.820313c0-3.453125 2.800781-6.257812 6.257812-6.257812h4.171875c3.457031 0 6.257813 2.804687 6.257813 6.257812v53.820313c0 9.691406 4.351562 18.363281 11.207031 24.179687 3.738281 3.167969 5.898437 7.820313 5.898437 12.722656zm72.894532-15.742187c-9.761719-5.820313-16.296876-16.480469-16.296876-28.671875v-19.191406c0-17.683594 13.753907-32.144532 31.148438-33.292969-.734375-.046875-1.476562-.082031-2.226562-.082031h-11.679688c-18.429688 0-33.375 14.941406-33.375 33.375v29.203125c0 12.191406 6.539062 22.851562 16.300781 28.671875 5.105469 3.046875 8.3125 8.46875 8.3125 14.414062v59.078125c5.609375-1.445312 11.003907-3.421875 16.132813-5.863281v-63.226562c0-5.941407-3.210938-11.367188-8.316406-14.414063zm0 0" fill="#ffdea4"/></svg>