<?xml version="1.0" encoding="UTF-8" standalone="no"?>
<svg
   xmlns:dc="http://purl.org/dc/elements/1.1/"
   xmlns:cc="http://creativecommons.org/ns#"
   xmlns:rdf="http://www.w3.org/1999/02/22-rdf-syntax-ns#"
   xmlns:svg="http://www.w3.org/2000/svg"
   xmlns="http://www.w3.org/2000/svg"
   xmlns:sodipodi="http://sodipodi.sourceforge.net/DTD/sodipodi-0.dtd"
   xmlns:inkscape="http://www.inkscape.org/namespaces/inkscape"
   width="131"
   height="65"
   viewBox="0 0 34.660416 17.197917"
   version="1.1"
   id="svg178"
   inkscape:version="1.0.2 (e86c870879, 2021-01-15)"
   sodipodi:docname="logo.svg">
  <defs
     id="defs172" />
  <sodipodi:namedview
     id="base"
     pagecolor="#ffffff"
     bordercolor="#666666"
     borderopacity="1.0"
     inkscape:pageopacity="0.0"
     inkscape:pageshadow="2"
     inkscape:zoom="4"
     inkscape:cx="85.435736"
     inkscape:cy="45.442122"
     inkscape:document-units="mm"
     inkscape:current-layer="layer1"
     inkscape:document-rotation="0"
     showgrid="false"
     units="px"
     inkscape:window-width="1920"
     inkscape:window-height="1016"
     inkscape:window-x="0"
     inkscape:window-y="27"
     inkscape:window-maximized="1" />
  <metadata
     id="metadata175">
    <rdf:RDF>
      <cc:Work
         rdf:about="">
        <dc:format>image/svg+xml</dc:format>
        <dc:type
           rdf:resource="http://purl.org/dc/dcmitype/StillImage" />
        <dc:title></dc:title>
      </cc:Work>
    </rdf:RDF>
  </metadata>
  <g
     inkscape:label="Layer 1"
     inkscape:groupmode="layer"
     id="layer1">
    <path
       class="cls-1"
       d="m 2.1802545,2.6054267 a 6.8450743,6.8450743 0 0 1 1.4155063,0.1958709 c 0.3724175,0.085661 0.7390901,0.1911718 1.1031514,0.3055613 a 0.4178603,0.4178603 0 0 0 0.2172871,0.015675 5.254071,5.254071 0 0 1 1.3225242,-0.097151 3.6844833,3.6844833 0 0 1 0.6957376,0.089315 0.57142398,0.57142398 0 0 0 0.2935506,-0.00729 5.1537845,5.1537845 0 0 1 1.4954161,-0.171322 4.407904,4.407904 0 0 1 1.232166,0.1901262 1.5821236,1.5821236 0 0 1 0.5186672,0.2658639 0.86026989,0.86026989 0 0 1 0.282578,0.9616006 0.53747282,0.53747282 0 0 1 -0.426217,0.380254 c -0.192738,0.040742 -0.192738,0.04126 -0.227736,0.2324338 -0.0064,0.033954 -0.0141,0.067901 -0.01984,0.1044666 -0.02819,0.1655773 -0.0251,0.3066037 0.112821,0.4486771 0.220946,0.2272113 0.313396,0.525459 0.34735,0.8404211 0.01099,0.1102112 0.01202,0.1107335 0.12588,0.1123007 0.09558,0 0.191171,0 0.287274,0 0.05954,0 0.104472,0.019328 0.110732,0.083571 0.0064,0.064248 -0.03185,0.099241 -0.108121,0.1044654 -0.10812,0.00575 -0.217285,0.00575 -0.325928,0 -0.07365,-0.00316 -0.114914,0.019328 -0.123796,0.096108 a 0.30503802,0.30503802 0 0 1 -0.03135,0.1122998 c -0.07679,0.1368494 -0.03869,0.2611627 0.01619,0.3954003 a 10.687822,10.687822 0 0 1 0.506134,1.5022079 5.1187888,5.1187888 0 0 1 0.113347,1.8516447 4.3932789,4.3932789 0 0 1 -0.940185,2.230331 4.3154526,4.3154526 0 0 1 -1.3909552,1.121432 11.74501,11.74501 0 0 1 -2.8874171,1.063977 c -0.1880355,0.04231 -0.3687575,0.04702 -0.5447842,-0.04283 a 0.53277191,0.53277191 0 0 1 -0.1854247,-0.140508 0.30399339,0.30399339 0 0 1 -0.039692,-0.330633 1.1057628,1.1057628 0 0 1 0.094016,-0.156698 c 0.079394,-0.119612 0.1608764,-0.237658 0.2418364,-0.356224 0.3227951,-0.470094 0.470096,-1.001821 0.5301582,-1.56332 a 2.6889311,2.6889311 0 0 0 0.021934,-0.377641 c 0,-0.08409 -0.016184,-0.09299 -0.092453,-0.06529 -0.056958,0.02089 -0.1128202,0.04597 -0.1702811,0.06477 A 1.0968833,1.0968833 0 0 1 5.0107259,12.053802 2.6758731,2.6758731 0 0 1 4.0971765,11.513717 C 3.9775605,11.405073 3.8589939,11.29643 3.7498329,11.177862 a 0.09401857,0.09401857 0 0 0 -0.14469,-0.01724 0.72080901,0.72080901 0 0 1 -0.4565122,0.125358 c -0.1666213,-0.0088 -0.2951113,-0.108649 -0.318092,-0.271087 -0.013591,-0.09349 -0.061626,-0.170801 -0.087757,-0.257507 a 0.0679023,0.0679023 0 0 0 -0.080435,-0.05223 c -0.082013,0.0057 -0.1650539,0.0063 -0.2470633,0.0162 a 1.2050048,1.2050048 0 0 1 -0.2089308,0.0094 C 1.9336947,10.719787 1.7038674,10.408459 1.7733362,10.146252 A 0.31339525,0.31339525 0 0 1 2.0062913,9.9075495 4.1561432,4.1561432 0 0 1 2.4910128,9.8135279 c 0.075743,-0.010983 0.0935,-0.044394 0.0935,-0.1102055 A 0.50456633,0.50456633 0 0 1 2.6174482,9.511629 0.44972217,0.44972217 0 0 1 3.2593851,9.2781487 0.87385035,0.87385035 0 0 1 3.4568263,9.4275352 0.2611627,0.2611627 0 0 0 3.6438182,9.503268 c 0.077827,0 0.1566988,0.011488 0.2334803,0.019325 a 0.53433889,0.53433889 0 0 1 0.4659101,0.3457787 c 0.045445,0.1086477 0.079919,0.2209443 0.125362,0.3290653 a 1.9148449,1.9148449 0 0 0 0.3556995,0.574558 0.80908202,0.80908202 0 0 0 0.4418865,0.261164 c 0.1347598,0.02665 0.1963975,-0.0079 0.2350468,-0.138939 A 1.0869592,1.0869592 0 0 0 5.5388121,10.545828 0.28623432,0.28623432 0 0 0 5.4656883,10.38234 8.5995652,8.5995652 0 0 0 4.5035663,9.337689 C 4.3865602,9.2269567 4.266951,9.1188346 4.1468171,9.011758 4.074735,8.9475129 4.0731676,8.9496061 4.0219809,9.0232458 3.8480463,9.2729173 3.5289038,9.254113 3.3868317,8.986163 A 0.82057317,0.82057317 0 0 1 3.3084799,8.6727674 0.44032031,0.44032031 0 0 1 3.3055592,8.5296507 C 3.3577613,8.3118408 3.2099754,8.2162551 3.0658093,8.1170138 3.0208698,8.085675 2.9973585,8.0997818 2.9754534,8.1447016 A 0.56463375,0.56463375 0 0 1 2.9007524,8.2658812 0.2507162,0.2507162 0 0 1 2.5037857,8.2725987 0.46539193,0.46539193 0 0 1 2.3951894,8.0673701 1.2943223,1.2943223 0 0 1 2.3351482,7.7085327 0.23713573,0.23713573 0 0 0 2.2092687,7.4854998 3.3904141,3.3904141 0 0 1 1.6926931,7.0843534 C 1.1452912,6.5646397 0.82092865,5.921657 0.64124894,5.1966694 A 4.3447026,4.3447026 0 0 1 0.54305356,3.8229545 1.266639,1.266639 0 0 1 1.4362317,2.7109235 2.2266731,2.2266731 0 0 1 2.1800172,2.6054152 Z M 10.3113,7.871511 A 2.6424443,2.6424443 0 0 0 10.180193,7.5084951 c -0.01567,-0.037608 -0.04337,-0.038135 -0.07208,-0.012529 -0.01669,0.014622 -0.03236,0.029255 -0.04804,0.044394 C 9.7205571,7.8631571 9.3073969,7.9744113 8.8587231,7.9096434 A 1.447886,1.447886 0 0 1 7.6349228,6.7939529 c -0.00504,-0.025592 -0.013079,-0.052233 -0.018269,-0.075738 -0.00504,-0.023507 -0.012508,-0.065816 -0.052205,-0.060587 -0.039697,0.00524 -0.037109,0.041785 -0.041278,0.072081 -0.00897,0.068945 -0.014593,0.1389385 -0.028759,0.20893 C 7.3032413,7.8156232 6.4899794,8.3901813 5.5759134,8.1932648 a 1.6014496,1.6014496 0 1 1 1.9190237,-1.8505992 0.64350487,0.64350487 0 0 0 0.024523,0.087752 0.03029486,0.03029486 0 0 0 0.041267,0.020371 0.04335301,0.04335301 0 0 0 0.023513,-0.02716 c 0.00885,-0.052234 0.015164,-0.1044644 0.021429,-0.1566968 A 1.4202027,1.4202027 0 0 1 8.2006025,5.2530973 c 0.4042788,-0.2935449 0.85191,-0.3468232 1.3261821,-0.2089291 0.03343,0.0094 0.065288,0.024024 0.098198,0.034997 0.032941,0.010973 0.056955,-0.00417 0.068441,-0.03865 A 0.14520646,0.14520646 0 0 0 9.641227,4.8571777 1.2624605,1.2624605 0 0 0 9.2562746,4.6425033 0.74796992,0.74796992 0 0 0 8.6294827,4.7010065 1.030548,1.030548 0 0 0 8.3803342,4.8906107 0.09088462,0.09088462 0 0 1 8.2455747,4.9104562 C 8.1881247,4.8718062 8.1243979,4.8420302 8.0643267,4.8059897 7.9734437,4.7537557 7.9739587,4.7537557 8.0382237,4.663395 8.0549117,4.639888 8.0857557,4.622129 8.0705797,4.579301 A 0.52859329,0.52859329 0 0 0 7.7216617,4.6425054 0.50038772,0.50038772 0 0 1 7.3304413,4.6660113 0.91354707,0.91354707 0 0 1 7.148151,4.5960179 0.81273832,0.81273832 0 0 0 6.8525158,4.5019997 C 6.5500909,4.4622997 6.6273906,4.4027575 6.4445758,4.6675764 6.3881337,4.7490588 6.387125,4.747492 6.299893,4.709361 6.2523611,4.6879475 6.203798,4.6686187 6.1562525,4.6472052 5.8319076,4.5004329 5.5127646,4.4972977 5.1925794,4.667052 5.0358816,4.750623 4.8750053,4.8279288 4.7224919,4.9156791 4.6295171,4.9679113 4.6394376,4.9908951 4.565793,4.8723267 4.5318549,4.8164406 4.4989194,4.7600275 4.4681161,4.7025722 A 0.14468413,0.14468413 0 0 0 4.3474564,4.6189992 0.77513085,0.77513085 0 0 1 4.0471249,4.5396065 C 3.9907556,4.5072207 3.9337797,4.4758839 3.8758013,4.4461095 3.8491942,4.4325268 3.8204352,4.4100699 3.7901384,4.4267817 3.7175303,4.4669996 3.6303048,4.4847604 3.566057,4.5552726 a 0.18647017,0.18647017 0 0 0 0.1185732,0.03343 0.98562801,0.98562801 0 0 1 0.435616,0.1614004 0.4753161,0.4753161 0 0 1 0.1661043,0.1802016 c 0.07104,0.1425941 0.027679,0.2611634 -0.1206597,0.3133955 a 0.63619233,0.63619233 0 0 1 -0.1645359,0.03865 c -0.067876,0.00575 -0.074692,0.028209 -0.029771,0.079914 0.071546,0.082007 0.1493854,0.1566984 0.2162444,0.2439273 0.091924,0.1175232 0.077301,0.2141532 -0.045445,0.3003366 A 0.85243504,0.85243504 0 0 1 3.6167283,6.0705392 C 3.4657753,6.0663725 3.3957815,6.0136038 3.3451168,5.8725782 A 0.919815,0.919815 0 0 1 3.298094,5.6568575 C 3.2876596,5.5523926 3.2782429,5.547691 3.1936245,5.6014891 A 0.92138199,0.92138199 0 0 1 2.9564915,5.7122225 C 2.6185457,5.804674 2.3819306,5.5273195 2.4472211,5.2530973 A 0.66230859,0.66230859 0 0 1 2.5892942,4.9919361 c 0.021935,-0.027684 0.06371,-0.046487 0.056446,-0.091407 A 0.07051392,0.07051392 0 0 0 2.5799479,4.8963573 4.5405746,4.5405746 0 0 0 1.9641272,5.1089427 1.3256619,1.3256619 0 0 0 1.6507303,5.2969793 c -0.088797,0.074694 -0.091932,0.081482 -0.052204,0.1869941 a 2.1561593,2.1561593 0 0 0 0.1932626,0.3990609 4.1566653,4.1566653 0 0 0 0.5379889,0.7192424 c 0.1300656,0.1337157 0.1566991,0.265341 0.139988,0.4424098 a 2.7004223,2.7004223 0 0 0 0.038116,0.9339176 0.43666402,0.43666402 0 0 0 0.076259,0.1781123 c 0.067876,0.084096 0.1509529,0.085662 0.2183288,0 a 0.49098587,0.49098587 0 0 0 0.083053,-0.1896031 2.1937667,2.1937667 0 0 0 0.05486,-0.5954511 0.70931788,0.70931788 0 0 1 0.018838,-0.2198991 c 0.038116,-0.1269249 0.1112535,-0.1775909 0.2418353,-0.1645327 0.1081266,0.010446 0.1566988,0.086706 0.186993,0.176024 a 0.94958756,0.94958756 0 0 1 0.036528,0.3092163 c 0.00642,0.3828647 0.013591,0.7657284 0.018838,1.1491159 A 0.64663883,0.64663883 0 0 0 3.506122,8.9125223 0.22251061,0.22251061 0 0 0 3.7354248,9.0514606 C 3.8398893,9.0415452 3.8983865,8.9861733 3.9349503,8.8738691 A 0.57455792,0.57455792 0 0 0 3.956885,8.693145 c 0,-0.186992 0,-0.3739849 0,-0.5609769 a 0.47792774,0.47792774 0 0 1 0.00428,-0.090881 0.06320138,0.06320138 0 0 1 0.052202,-0.052232 0.06685765,0.06685765 0 0 1 0.068451,0.029256 0.39122171,0.39122171 0 0 1 0.034445,0.08357 1.0248025,1.0248025 0 0 0 0.1687135,0.3071278 c 0.08618,0.1086432 0.1102113,0.1107323 0.2131097,0.022976 -0.020922,0.1514746 -0.043363,0.167144 -0.226168,0.1530411 0.0036,0.052232 0.048035,0.069473 0.078352,0.09611 0.208931,0.1802023 0.4089813,0.3656279 0.6006698,0.5609778 0.1431224,0.1462505 0.2825776,0.295636 0.4246507,0.4424095 0.0261,0.027167 0.049116,0.076258 0.091932,0.062673 0.1044645,-0.031864 0.1410303,0.04074 0.1869933,0.1044676 A 1.2640274,1.2640274 0 0 1 5.9078401,10.758945 0.96055638,0.96055638 0 0 1 5.7924083,11.169494 0.48419563,0.48419563 0 0 1 5.3620125,11.418119 0.8785513,0.8785513 0 0 1 5.031898,11.353351 C 4.7341812,11.241571 4.5200291,11.031073 4.3497481,10.770432 A 2.507162,2.507162 0 0 1 4.0415786,10.110736 0.28727896,0.28727896 0 0 0 3.7736267,9.8856133 0.94018573,0.94018573 0 0 0 3.6299862,9.8809409 0.56463375,0.56463375 0 0 1 3.217869,9.712752 0.74744768,0.74744768 0 0 0 3.1395172,9.6438044 c -0.064216,-0.044919 -0.1112546,-0.042827 -0.1509529,0.00322 a 0.11073298,0.11073298 0 0 0 0,0.154085 0.27578781,0.27578781 0 0 0 0.052202,0.056408 c 0.1305811,0.096106 0.2653418,0.1822916 0.4345731,0.1890806 0.059036,0 0.1222262,0.0162 0.1431226,0.0726 a 0.26690828,0.26690828 0 0 0 0.2052715,0.179157 0.07469254,0.07469254 0 0 1 0.056953,0.10133 0.08983997,0.08983997 0 0 1 -0.1086432,0.07104 c -0.076259,-0.01724 -0.1640117,-0.03447 -0.2089315,-0.09976 a 0.40584684,0.40584684 0 0 0 -0.2977282,-0.179158 0.197439,0.197439 0 0 1 -0.072083,-0.02977 0.2611627,0.2611627 0 0 0 -0.1624438,-0.0303 c -0.2695193,0.01618 -0.5332937,0.06895 -0.7991608,0.10969 -0.029768,0.0047 -0.065794,0.0073 -0.064213,0.04857 0.00144,0.04126 0.031351,0.05223 0.061122,0.06006 a 0.60119653,0.60119653 0 0 0 0.2089236,0 c 0.1640121,-0.01515 0.328548,-0.02769 0.4930772,-0.04125 0.06738,-0.0053 0.1264037,0.01202 0.141555,0.08462 0.013085,0.06215 0.049613,0.0679 0.1018476,0.07364 0.092975,0.01099 0.1206598,0.0794 0.069464,0.156697 -0.01251,0.01984 -0.04494,0.02665 -0.038611,0.06685 a 0.10916601,0.10916601 0 0 1 0.1013316,0.0632 c 0.022432,0.04857 -0.031349,0.08723 -0.016181,0.135282 0.1002881,-0.01149 0.1566987,-0.08149 0.2261678,-0.133715 0.1352844,-0.104472 0.2345221,-0.100809 0.3614514,0.01202 0.032361,0.02873 0.06112,0.06163 0.091924,0.09246 0.1102111,0.11126 0.2172871,0.225645 0.3311582,0.333243 a 2.0166984,2.0166984 0 0 0 0.9992106,0.540085 0.67223279,0.67223279 0 0 0 0.8137796,-0.529117 1.0394275,1.0394275 0 0 0 0.020342,-0.324363 c -0.01151,-0.112301 -0.00998,-0.226168 -0.030273,-0.337944 -0.00885,-0.05223 0,-0.09768 0.065789,-0.104462 a 0.09297391,0.09297391 0 0 1 0.10969,0.07052 0.1441618,0.1441618 0 0 1 0.00885,0.03814 c 0.00885,0.20893 0.052205,0.41786 0.010983,0.62679 a 0.36562777,0.36562777 0 0 0 0,0.156698 3.5241294,3.5241294 0 0 1 0.042287,1.385207 c -0.075215,0.458079 -0.1990089,0.898922 -0.4382345,1.301633 -0.1107323,0.187516 -0.2350473,0.365629 -0.3546564,0.547396 -0.045951,0.07052 -0.036529,0.09403 0.038114,0.12327 a 0.09819717,0.09819717 0 0 0 0.1253542,-0.03604 c 0.065301,-0.0815 0.1311121,-0.162466 0.2010999,-0.240291 0.3692891,-0.410548 0.5923217,-0.893698 0.7312583,-1.423858 0.087745,-0.335855 0.1044676,-0.679024 0.1227447,-1.020625 A 4.4120825,4.4120825 0 0 0 6.7236897,10.977406 0.2366134,0.2366134 0 0 0 6.6432519,10.820708 0.27944408,0.27944408 0 0 1 6.5434807,10.528204 0.15042972,0.15042972 0 0 0 6.5272967,10.416429 3.0817197,3.0817197 0 0 0 5.843567,9.5023591 C 5.5902636,9.2761641 5.3212689,9.0724572 5.0506991,8.8645717 A 2.499327,2.499327 0 0 1 4.7472327,8.5976634 0.90257826,0.90257826 0 0 1 4.5847891,8.3829883 1.2687284,1.2687284 0 0 1 4.827667,8.5255823 c 0.3656299,0.2669092 0.7239474,0.5421736 1.0681561,0.8357213 a 2.7792934,2.7792934 0 0 1 0.4001013,0.4288288 3.3136322,3.3136322 0 0 1 0.3384711,0.5327726 c 0.030844,0.0632 0.06422,0.09193 0.1415469,0.06999 0.077311,-0.02194 0.172367,-0.02142 0.2575043,-0.0376 0.1300633,-0.02509 0.264824,-0.02613 0.3922704,-0.06424 0.00359,-0.05955 -0.037613,-0.09297 -0.052205,-0.136849 a 0.31026128,0.31026128 0 0 1 0.07155,-0.3363772 C 7.5249723,9.7420955 7.618472,9.7368607 7.746444,9.7995576 A 0.96943596,0.96943596 0 0 1 7.91881,9.9160362 0.48001703,0.48001703 0 0 0 8.1554185,10.017366 c 0.082018,0.01042 0.1640105,0.01827 0.2465386,0.02612 a 0.39540032,0.39540032 0 0 1 0.3551816,0.246014 c 0.03602,0.08357 0.063707,0.1708 0.094535,0.256462 0.1086482,0.301905 0.2512399,0.582916 0.4836715,0.810127 a 0.94802058,0.94802058 0 0 0 0.4700947,0.266909 c 0.2512411,0.05223 0.4042801,0 0.5077021,-0.261163 a 1.2645496,1.2645496 0 0 0 0.0397,-0.123791 1.3512558,1.3512558 0 0 0 -0.06212,-0.905713 0.31339525,0.31339525 0 0 1 -0.03968,-0.123269 0.08566137,0.08566137 0 0 1 0.06479,-0.08723 0.07730415,0.07730415 0 0 1 0.09819,0.04231 c 0.0079,0.01567 0.01516,0.03134 0.02193,0.04753 a 1.8223933,1.8223933 0 0 1 0.136327,0.946977 0.91720336,0.91720336 0 0 1 -0.208931,0.483151 0.52754864,0.52754864 0 0 1 -0.27213,0.168712 c -0.1519968,0.04282 -0.2935514,0.0073 -0.4330071,-0.04231 A 1.3460326,1.3460326 0 0 1 9.022534,11.267298 2.9386025,2.9386025 0 0 1 8.6334052,10.474407 c -0.069958,-0.204752 -0.1389376,-0.254373 -0.3520465,-0.261163 -0.017753,0 -0.035024,0 -0.052205,0 a 0.58395978,0.58395978 0 0 1 -0.4476382,-0.175502 0.4935975,0.4935975 0 0 0 -0.091926,-0.072591 0.0945409,0.0945409 0 0 0 -0.1295389,0.016195 0.10446508,0.10446508 0 0 0 -0.01151,0.1321495 0.33167661,0.33167661 0 0 0 0.099245,0.104467 c 0.031348,0.02298 0.065285,0.04283 0.097664,0.06528 a 0.08879531,0.08879531 0 0 1 0.037613,0.104468 0.08304974,0.08304974 0 0 1 -0.073646,0.06424 c -0.064791,0.0088 -0.1290144,0.01775 -0.1937805,0.02507 -0.2240817,0.0256 -0.4476322,0.05223 -0.6685779,0.10081 -0.027683,0.0057 -0.067874,0 -0.066372,0.04492 a 0.07051392,0.07051392 0 0 0 0.073646,0.07468 c 0.047532,0 0.095064,-0.0053 0.1425982,-0.0088 l 0.5197102,-0.03865 c 0.063716,-0.0047 0.116482,0.01463 0.1300579,0.08097 0.013595,0.06634 0.045447,0.07156 0.100287,0.0773 0.08566,0.0079 0.1248362,0.06216 0.083565,0.130582 -0.041266,0.06842 -0.013091,0.08461 0.029767,0.123268 0.126404,0.113345 0.1243115,0.115434 0.2611647,0.02036 0.1269207,-0.0888 0.208931,-0.08827 0.3295822,0.01099 a 1.1182986,1.1182986 0 0 1 0.1373762,0.139461 3.3428824,3.3428824 0 0 0 0.5019501,0.47375 2.0506496,2.0506496 0 0 0 0.6153032,0.335331 c 0.4591221,0.15252 0.8628771,-0.06529 0.9892801,-0.531725 a 3.2076001,3.2076001 0 0 0 0.07678,-0.554711 c 0.03653,-0.421518 0.01309,-0.842511 0,-1.2640279 -0.0036,-0.122746 -0.0073,-0.1175228 -0.127965,-0.1566967 A 1.3857292,1.3857292 0 0 1 9.7897892,8.8176324 0.60224117,0.60224117 0 0 1 9.8138078,8.2070344 C 9.9234974,8.018475 10.060347,7.8680449 10.311588,7.8717016 Z M 2.189135,2.9804546 A 2.7390744,2.7390744 0 0 0 1.7864232,3.006053 Q 1.0687469,3.1173083 0.92876673,3.8339397 A 0.90310058,0.90310058 0 0 0 1.0854652,4.5396011 C 1.2567893,4.7908385 1.4944471,4.9104518 1.8449261,4.8300137 A 2.6596809,2.6596809 0 0 0 2.376652,4.6210839 C 2.7025821,4.4680426 3.0279954,4.3118662 3.3769063,4.2152356 a 1.8537327,1.8537327 0 0 1 0.638802,-0.087227 c 0.2857126,0.021939 0.5656801,0.087227 0.8519117,0.1070776 a 1.8615677,1.8615677 0 0 0 0.5698575,-0.023506 0.56620074,0.56620074 0 0 1 0.1290147,-0.015675 c 0.3342936,-0.00316 0.668053,0 1.0028648,-0.021413 0.4643497,-0.028209 0.9292171,0.022981 1.3946102,0.025592 0.034441,0 0.068961,0.00835 0.1044676,0.0094 0.2413102,0.00524 0.4800183,0.039699 0.722897,-0.028727 A 0.96107871,0.96107871 0 0 1 9.4771443,4.251788 1.4452743,1.4452743 0 0 0 10.185416,4.3776688 0.22668923,0.22668923 0 0 0 10.409497,4.1932848 0.45755704,0.45755704 0 0 0 10.308683,3.7555762 0.77983179,0.77983179 0 0 0 10.036029,3.5581376 2.1770523,2.1770523 0 0 0 9.5413933,3.4014401 4.5384854,4.5384854 0 0 0 8.3113114,3.3147337 5.0143239,5.0143239 0 0 0 7.1621976,3.5173954 a 0.35831521,0.35831521 0 0 1 -0.1922136,0 C 6.8770047,3.4954575 6.7861257,3.4688223 6.691584,3.451587 6.3781869,3.3941273 6.0606125,3.3993545 5.7435627,3.3993545 A 3.3037082,3.3037082 0 0 0 4.9825326,3.4938985 0.68946952,0.68946952 0 0 1 4.5646706,3.4724862 8.145142,8.145142 0 0 0 3.3220629,3.1272283 C 2.9485959,3.0504482 2.5735683,2.9762777 2.189135,2.9804546 Z M 5.8219103,14.669577 a 0.21676503,0.21676503 0 0 0 0.1248373,-0.01253 c 0.5442595,-0.16192 1.0916618,-0.313396 1.6192096,-0.531728 a 0.20475156,0.20475156 0 0 0 0.1368452,-0.156697 3.0247863,3.0247863 0 0 1 0.2272098,-0.609554 c 0.2277354,-0.457556 0.5975423,-0.699916 1.1094225,-0.712974 a 2.0428146,2.0428146 0 0 1 0.6027616,0.0794 0.16766645,0.16766645 0 0 0 0.2089309,-0.06895 c 0.070543,-0.09925 0.1483446,-0.193259 0.2204228,-0.290935 0.01669,-0.02193 0.04228,-0.04649 0.01516,-0.0888 -0.307127,0.02454 -0.5839599,-0.08566 -0.8435493,-0.241836 A 3.3611639,3.3611639 0 0 1 8.4398239,11.355942 0.47374913,0.47374913 0 0 0 8.3411059,11.25147 c -0.05745,-0.03604 -0.1196156,-0.02089 -0.1906524,0.03187 -0.059546,0.04388 -0.037097,0.08619 -0.012508,0.135282 a 0.74849226,0.74849226 0 0 1 0.083565,0.325409 c 0.00885,0.43092 -0.3133905,0.872285 -0.7364732,1.004955 a 0.55575421,0.55575421 0 0 1 -0.113346,0.02509 0.64089325,0.64089325 0 0 1 -0.4481566,-0.09768 c -0.058527,-0.0397 -0.070541,-0.03082 -0.08566,0.03657 -0.01884,0.08461 -0.035024,0.170278 -0.052205,0.254895 -0.1091745,0.45599 -0.2784,0.887953 -0.5578434,1.26716 a 1.5497394,1.5497394 0 0 1 -0.3604012,0.373464 c -0.020353,0.0141 -0.049113,0.02403 -0.045447,0.06111 z m 0.097149,-8.2120015 v 0.00676 q 0.6325306,0 1.2645455,0 c 0.1483421,0 0.151477,-0.00626 0.1217014,-0.1457283 C 7.1428733,5.5560082 6.3891569,5.1130755 5.7200533,5.2217183 5.1230363,5.317305 4.6362299,5.7665055 4.5307215,6.3447201 c -0.01726,0.095585 -0.00945,0.1044654 0.084611,0.1133445 0.021428,0 0.043363,0 0.065287,0 z m 3.1558913,0.00676 v 0 h 0.7166253 c 0.1566993,0 0.3133981,0 0.4700961,0 0.09872,0 0.09976,-0.00467 0.09715,-0.1044644 A 0.99868622,0.99868622 0 0 0 10.325897,6.1415382 C 10.15458,5.4343086 9.4034747,4.9924207 8.7150507,5.2050084 8.222498,5.358571 7.9315577,5.7111417 7.8077717,6.2078734 a 0.69260348,0.69260348 0 0 0 -0.026607,0.1802024 c 0,0.04753 0.021934,0.072603 0.06997,0.074171 h 0.1044676 z m -4.566167,0.288318 c 0.00642,0.061114 0.00838,0.100287 0.015168,0.1389389 A 1.4222921,1.4222921 0 0 0 6.0611594,8.0407103 1.4196804,1.4196804 0 0 0 7.3382453,6.7557901 c 0.00885,-0.091929 -0.00504,-0.1044665 -0.096633,-0.1123005 -0.021934,0 -0.043856,0 -0.065285,0 l -1.0968856,-0.00259 c -0.1634861,0 -0.1629615,0 -0.2167609,0.1504296 A 0.69260348,0.69260348 0 0 1 5.8078194,6.9093786 C 5.6657441,7.1512155 5.4051058,7.2624712 5.153865,7.1841221 4.9417981,7.1177885 4.8164438,6.9642236 4.7490602,6.7584268 4.7119569,6.6440381 4.6759383,6.6215774 4.5636356,6.6403816 c -0.036022,0.00575 -0.055367,0.021939 -0.056954,0.057453 7.184e-4,0.025074 0.00214,0.05119 0.00214,0.054844 z M 9.087488,7.7450742 A 0.90780153,0.90780153 0 0 0 9.3068661,7.7189532 C 9.7733004,7.6494802 10.225636,7.2216997 10.321221,6.762053 c 0.02092,-0.099764 0.01151,-0.1149113 -0.09297,-0.1159561 q -0.4753155,-0.00575 -0.9521991,-0.00467 c -0.1008094,0 -0.1044613,0 -0.1331913,0.1044665 a 0.73595646,0.73595646 0 0 1 -0.091939,0.2005725 0.55784352,0.55784352 0 0 1 -0.9427929,0.0073 0.7709523,0.7709523 0 0 1 -0.1044735,-0.2366134 0.11647856,0.11647856 0 0 0 -0.163495,-0.074693 c -0.066877,0.024549 -0.029767,0.079394 -0.028692,0.1227463 a 0.22721155,0.22721155 0 0 0 0.014593,0.052234 C 7.9399321,7.2535847 8.3713702,7.728901 9.0874773,7.7471825 Z M 3.8062593,5.1104666 a 0.99241827,0.99241827 0 0 0 0.2611574,-0.02716 C 4.1405497,5.0697237 4.1520387,5.0352517 4.1081897,4.97414 A 0.36823941,0.36823941 0 0 0 3.9650735,4.8634075 0.99711918,0.99711918 0 0 0 3.2442622,4.7944641 0.98615033,0.98615033 0 0 0 2.7621589,5.0639836 0.41263706,0.41263706 0 0 0 2.6378474,5.3157445 c -0.012014,0.1640113 0.104465,0.2611641 0.2642914,0.2261686 a 0.60850908,0.60850908 0 0 0 0.2407937,-0.123792 c 0.057449,-0.046487 0.11021,-0.098719 0.1671459,-0.1452055 a 0.09401857,0.09401857 0 0 1 0.1384125,0 0.12222413,0.12222413 0 0 1 0.024592,0.098196 2.0151314,2.0151314 0 0 0 0.030278,0.3760756 c 0.018264,0.1143894 0.077827,0.1566977 0.1916884,0.1420727 a 0.70931788,0.70931788 0 0 0 0.2935506,-0.098197 c 0.06738,-0.043352 0.072608,-0.060071 0.016677,-0.1201355 C 3.900816,5.5560153 3.7879875,5.4458043 3.6788266,5.3335037 a 0.56724538,0.56724538 0 0 1 -0.073133,-0.077304 0.08775067,0.08775067 0 0 1 0.071546,-0.1457291 c 0.039186,-0.00259 0.078352,0 0.1290147,0 z M 0.94025736,4.6894727 c -0.0198455,0.017769 -0.009915,0.039699 -0.007835,0.060071 a 2.7646684,2.7646684 0 0 0 0.0914067,0.4471098 c 0.1969158,0.7239442 0.557325,1.344467 1.168968,1.8015011 0.027684,0.020897 0.052204,0.042828 0.084094,0.061637 a 0.03447347,0.03447347 0 0 0 0.052202,-0.012533 C 2.3609472,6.986145 2.3355179,6.8226578 2.2878136,6.7662465 2.1896238,6.6497691 2.0888111,6.5353797 1.9958433,6.4152449 1.8093684,6.1744534 1.6302136,5.926871 1.5153001,5.6422036 1.4416535,5.4651349 1.3894207,5.2823208 1.416062,5.0854044 A 0.07417021,0.07417021 0 0 0 1.3685319,4.9919087 0.94749825,0.94749825 0 0 1 0.97522544,4.6999292 0.02977255,0.02977255 0 0 0 0.94020704,4.6894884 Z M 8.1567042,13.847404 a 0.21310876,0.21310876 0 0 0 0.046523,-0.0057 5.4844168,5.4844168 0 0 0 1.0681545,-0.643504 c 0.052209,-0.03917 0.044364,-0.06529 -0.019852,-0.08461 -0.1566993,-0.0491 -0.3180993,-0.02769 -0.4768825,0 A 0.76834065,0.76834065 0 0 0 8.1567389,13.847412 Z M 3.2990822,7.5889003 a 1.5748111,1.5748111 0 0 0 -0.020348,-0.3133946 0.34107847,0.34107847 0 0 0 -0.029771,-0.099242 0.08304974,0.08304974 0 0 0 -0.079394,-0.056411 0.08409438,0.08409438 0 0 0 -0.078352,0.075215 0.52232539,0.52232539 0 0 0 -0.010425,0.1044655 1.4823595,1.4823595 0 0 1 0,0.2209435 c -0.023015,0.1311039 0.064284,0.1864701 0.1504282,0.2444484 0.038689,0.026121 0.067876,0.01619 0.06997,-0.033958 0.00214,-0.050138 -7.195e-4,-0.1122998 -7.195e-4,-0.142073 z M 4.0872695,8.4246214 A 0.22042131,0.22042131 0 0 0 4.2199371,8.5395333 0.22042131,0.22042131 0 0 0 4.0883122,8.4272336 Z"
       id="path123"
       style="fill:#df5b5c;stroke-width:0.0522325" />
    <path
       class="cls-2"
       d="m 30.494994,10.615809 a 0.51449051,0.51449051 0 0 0 0.08201,0.163488 c 0.213632,0.332721 0.429352,0.664398 0.640893,0.998684 a 4.8544922,4.8544922 0 0 1 0.280493,0.515016 0.3703287,0.3703287 0 0 1 0.05221,0.156697 1.3737157,1.3737157 0 0 1 -0.317058,0.02925 c -0.182289,0.0088 -0.365621,0 -0.547392,0.0088 a 0.13319297,0.13319297 0 0 1 -0.144164,-0.09975 7.3250912,7.3250912 0 0 0 -0.537473,-1.056142 c -0.07104,-0.114388 -0.151994,-0.22251 -0.229819,-0.332199 -0.0141,-0.01985 -0.02926,-0.0491 -0.06004,-0.03918 -0.03078,0.01 -0.02819,0.04125 -0.02819,0.06686 0,0.221466 0,0.443455 0.0036,0.665443 0.0051,0.19535 0.01775,0.3907 0.02718,0.58605 0.0064,0.138938 0.02718,0.151996 -0.151994,0.176545 a 2.8362269,2.8362269 0 0 1 -0.507178,0.02977 c -0.09142,-0.0041 -0.182815,-0.0032 -0.273698,0 -0.06271,0 -0.08775,-0.02509 -0.08358,-0.08513 0,-0.01723 0,-0.035 0,-0.05223 q 0.01877,-1.604583 0,-3.2096898 c -0.0029,-0.264819 -0.01517,-0.5301598 -0.04227,-0.7939342 -0.0125,-0.1180458 -0.01201,-0.1237917 0.108121,-0.1405057 0.184383,-0.025595 0.370325,-0.045445 0.555751,-0.063204 A 3.2326719,3.2326719 0 0 1 29.8301,8.1159058 c 0.233481,0.013056 0.470096,0.00729 0.69783,0.069989 a 1.3204385,1.3204385 0 0 1 0.957419,1.149116 c 0.04228,0.4095016 -0.113345,0.7390892 -0.378688,1.0284582 -0.141022,0.156698 -0.331675,0.216764 -0.535378,0.241836 -0.02143,0.0016 -0.04228,0.0053 -0.07627,0.0104 z M 29.523993,9.4144598 h 0.0064 c 0,0.1086443 0,0.2167652 0,0.3254083 0,0.048059 0.01202,0.091937 0.07836,0.099245 a 2.0490826,2.0490826 0 0 0 0.570902,-0.0047 A 0.30503802,0.30503802 0 0 0 30.403737,9.6724917 0.47322681,0.47322681 0 0 0 30.129515,8.986156 C 29.946174,8.927655 29.770672,8.976236 29.594653,9.029508 a 0.10446508,0.10446508 0 0 0 -0.08412,0.1243107 c 0.0051,0.085662 0.0088,0.1723672 0.01301,0.2595959 z"
       id="path125"
       style="fill:#f58120;stroke-width:0.0522325" />
    <path
       class="cls-2"
       d="m 21.747086,4.4920658 c 0,-0.5411301 0.01675,-1.0718115 0.0064,-1.601974 -0.0029,-0.1352817 0,-0.1352817 0.130581,-0.1566968 a 3.3622085,3.3622085 0 0 1 0.56986,-0.048573 c 0.191687,0 0.383383,0.011492 0.574552,0 0.30556,-0.017236 0.532253,0.1264027 0.73387,0.3311548 a 1.4625111,1.4625111 0 0 1 0.246539,0.3656274 3.0159067,3.0159067 0 0 1 0.307644,0.9360086 1.0592759,1.0592759 0 0 1 0.01302,0.1948261 c -0.01302,0.3212302 -0.01669,0.6429819 -0.05221,0.9631683 -0.02351,0.2167652 -0.118567,0.4079364 -0.215194,0.5970177 a 5.0143239,5.0143239 0 0 1 -0.551056,0.8357208 0.15669762,0.15669762 0 0 1 -0.13215,0.071561 c -0.477925,0.00626 -0.955858,0.02716 -1.433783,0.021939 -0.09819,0 -0.09872,0 -0.111248,-0.098197 a 10.314882,10.314882 0 0 1 -0.07836,-1.1700092 c -0.0057,-0.4178611 -0.03086,-0.8351994 -0.0088,-1.2415668 z m 0.856096,0.3358554 h 0.0042 q 0,0.3520472 0,0.7040938 c 0,0.00887 0,0.017236 0,0.026116 0.0042,0.1008094 0.0084,0.1143894 0.104461,0.1347597 0.198484,0.04126 0.484714,0.00575 0.636711,-0.2162426 C 23.658298,5.0243143 23.5298,4.4769183 23.316704,4.1635229 A 0.36562777,0.36562777 0 0 0 23.112588,4.0068257 0.85609135,0.85609135 0 0 0 22.712486,3.988547 c -0.110206,0.024024 -0.110206,0.02298 -0.110206,0.1326702 5.98e-4,0.2371365 7.2e-4,0.4716607 7.2e-4,0.7067084 z"
       id="path127"
       style="fill:#f58120;stroke-width:0.0522325" />
    <path
       class="cls-2"
       d="m 12.713471,10.051697 c 0,-0.3954004 0,-0.791323 0,-1.1867232 0,-0.1566978 -0.0064,-0.3133956 -0.0073,-0.4700935 0,-0.1159564 0.0051,-0.125358 0.118048,-0.144684 a 2.1472797,2.1472797 0 0 1 0.25803,-0.031339 c 0.352046,-0.019851 0.704092,-0.00369 1.056139,-0.00419 a 0.60433046,0.60433046 0 0 1 0.313398,0.111778 1.1741875,1.1741875 0 0 1 0.385475,0.3828646 2.611627,2.611627 0 0 1 0.417864,1.2206743 c 0.01827,0.2611638 -0.01251,0.5291158 -0.02193,0.7939348 0,0.03918 -0.01099,0.07783 -0.01099,0.116479 a 1.3444656,1.3444656 0 0 1 -0.145726,0.563067 5.239446,5.239446 0 0 1 -0.626794,0.989284 0.15095203,0.15095203 0 0 1 -0.1311,0.06581 c -0.464867,0 -0.93026,0.0067 -1.395652,0.0094 -0.114914,0 -0.12588,-0.0084 -0.136853,-0.124313 -0.02193,-0.229301 -0.04385,-0.459124 -0.05645,-0.688946 q -0.04337,-0.800203 -0.01619,-1.603019 z m 0.835725,0.261163 h 0.0057 c 0,0.24288 0,0.486284 0,0.731257 0,0.104472 0.02351,0.124312 0.113347,0.146772 a 0.59910723,0.59910723 0 0 0 0.636709,-0.244448 c 0.300353,-0.441887 0.156713,-0.9861505 -0.04651,-1.2749961 A 0.37346265,0.37346265 0 0 0 14.05424,9.5147468 0.84042156,0.84042156 0 0 0 13.64213,9.5016914 c -0.09297,0.021418 -0.09403,0.02246 -0.09403,0.1206568 0.0015,0.2303458 0.0021,0.4580798 0.0021,0.6884248 z"
       id="path129"
       style="fill:#f58120;stroke-width:0.0522325" />
    <path
       class="cls-2"
       d="m 25.759592,10.578724 c -0.03602,-0.7834897 -0.02401,-1.3841633 -0.0042,-1.984837 0.0029,-0.077827 0.01,-0.1566978 0.0141,-0.2340021 a 0.08200508,0.08200508 0 0 1 0.0919,-0.086705 h 0.05221 c 0.460691,-0.013056 0.921381,-0.020892 1.381552,-0.04127 0.291977,-0.012529 0.582392,0.00467 0.87385,0.00885 0.116475,0 0.125879,0.010446 0.127964,0.1284919 0.0042,0.2089301 0.0042,0.4178602 -0.01099,0.6267903 -0.0084,0.1096889 -0.0104,0.1096889 -0.12327,0.1253581 a 6.0924035,6.0924035 0 0 1 -0.780349,0.044919 c -0.204235,0.00311 -0.408982,0 -0.61321,0.00467 -0.110206,0 -0.112304,0.00467 -0.117531,0.1070775 -0.0079,0.1608752 -0.01827,0.3212298 -0.01985,0.4821051 -0.0015,0.1608768 0.02143,0.173935 0.173418,0.1781143 0.173408,0.0047 0.347861,0.00369 0.522321,0.00627 0.09558,0 0.108647,0.010425 0.109163,0.1044679 0,0.221466 0,0.443453 0,0.665443 0,0.05223 -0.02769,0.07208 -0.07836,0.08252 a 2.2705484,2.2705484 0 0 1 -0.390178,0.02089 0.99241827,0.99241827 0 0 0 -0.208933,0.01723 0.0924516,0.0924516 0 0 0 -0.07783,0.0888 c -0.03553,0.217287 -0.0094,0.434053 0.0036,0.650818 0.0029,0.04806 0.03028,0.06686 0.07678,0.06895 0.108649,0.0047 0.216769,0.01515 0.325405,0.01828 0.36929,0.0094 0.739089,0.01724 1.10838,0.0256 0.09924,0 0.104461,0.0025 0.10969,0.104472 a 2.2334634,2.2334634 0 0 1 -0.02559,0.583961 0.09924183,0.09924183 0 0 1 -0.114914,0.09297 c -0.648209,0 -1.295891,0.03187 -1.943573,0.01827 -0.121702,-0.0025 -0.242878,-0.0188 -0.36563,-0.02142 -0.06946,0 -0.09245,-0.03395 -0.0935,-0.09558 0,-0.04336 0,-0.0867 0,-0.13006 z"
       id="path131"
       style="fill:#f58120;stroke-width:0.0522325" />
    <path
       class="cls-2"
       d="m 18.304446,4.7626301 q 0,0.5876156 -0.05745,1.1726201 a 1.932604,1.932604 0 0 1 -0.16035,0.6017186 0.75737184,0.75737184 0 0 1 -0.396966,0.3776416 1.6552491,1.6552491 0 0 1 -0.793415,0.1744564 3.574795,3.574795 0 0 1 -0.441362,-0.031337 c -0.309746,-0.052233 -0.52233,-0.2198992 -0.626795,-0.5223259 -0.07365,-0.2089297 -0.08253,-0.4262173 -0.09506,-0.642982 -0.03502,-0.5902285 -0.0522,-1.1815005 -0.03085,-1.7727718 A 2.9349463,2.9349463 0 0 1 15.778978,3.4865912 1.4959399,1.4959399 0 0 1 15.935676,3.1157391 0.68372395,0.68372395 0 0 1 16.32794,2.810702 1.9994616,1.9994616 0 0 1 17.544438,2.783018 c 0.434057,0.1243138 0.65813,0.4267384 0.73126,0.8597472 a 3.7565641,3.7565641 0 0 1 0.03185,0.6894695 c -0.0057,0.1436389 -0.0029,0.2867563 -0.0029,0.4303965 z M 17.558041,5.1313922 A 9.6807786,9.6807786 0 0 0 17.526191,4.129572 0.88795313,0.88795313 0 0 0 17.460891,3.8386366 C 17.342326,3.5649371 17.129735,3.4792749 16.85186,3.5774732 c -0.270044,0.09663 -0.405848,0.2951146 -0.4633,0.5625439 a 2.701467,2.701467 0 0 0 -0.05221,0.5693348 6.1409796,6.1409796 0 0 0 0.09924,1.1658307 0.43718636,0.43718636 0 0 0 0.3181,0.3452571 0.66178627,0.66178627 0 0 0 0.397483,0.00575 0.52232539,0.52232539 0 0 0 0.382867,-0.4857628 c 0.01151,-0.1974392 0.02668,-0.3964445 0.02401,-0.6090301 z"
       id="path133"
       style="fill:#f58120;stroke-width:0.0522325" />
    <path
       class="cls-2"
       d="m 15.682889,10.551041 c -0.0251,-0.7155867 -0.0146,-1.2760423 -0.0051,-1.8370201 0,-0.1086432 0.0094,-0.2172871 0.01775,-0.3254082 0.0084,-0.108121 0.0146,-0.114389 0.115432,-0.1149119 0.208931,0 0.417862,-0.021935 0.626786,-0.027162 0.325937,-0.00779 0.651867,-0.012014 0.977798,-0.020892 0.233997,-0.00575 0.470087,0.00729 0.703568,0.014623 0.08984,0.00263 0.101329,0.010961 0.104461,0.097675 0,0.2261669 -0.0029,0.451812 -0.0036,0.6790225 0,0.072608 -0.03969,0.092975 -0.104471,0.1044655 a 6.0850908,6.0850908 0 0 1 -0.688949,0.044394 c -0.238701,0.00838 -0.477927,0.00311 -0.717152,0.00575 -0.122744,0 -0.122744,0.00369 -0.128489,0.1232698 -0.0057,0.1196121 -0.01151,0.2434027 -0.01619,0.3656271 a 0.97152519,0.97152519 0 0 0 0,0.1170009 c 0.01,0.1415503 0.02302,0.1566975 0.162444,0.1613992 0.125879,0.0047 0.251758,0.0047 0.378162,0.00627 0.05637,0 0.112822,0.00314 0.169233,0 0.06896,-0.00415 0.09297,0.028726 0.09246,0.092979 q -0.0029,0.33899 0,0.679023 c 0,0.05693 -0.02769,0.07052 -0.07731,0.08097 a 2.2705484,2.2705484 0 0 1 -0.390178,0.02089 1.0650216,1.0650216 0 0 0 -0.208932,0.01672 0.08931764,0.08931764 0 0 0 -0.07993,0.08774 5.103119,5.103119 0 0 0 0,0.638282 c 0.0029,0.05797 0.03236,0.08305 0.09193,0.08409 0.108648,0.0033 0.216763,0.01463 0.325406,0.01724 0.365631,0.01 0.73126,0.01723 1.096882,0.02559 0.09715,0 0.104471,0.0063 0.115439,0.09976 a 2.1645163,2.1645163 0 0 1 -0.02927,0.583437 0.09715252,0.09715252 0 0 1 -0.111259,0.09558 c -0.648209,0 -1.295373,0.03187 -1.943573,0.01828 -0.121184,-0.0025 -0.24236,-0.01932 -0.36563,-0.02142 -0.06997,0 -0.08984,-0.03187 -0.09036,-0.09454 -0.0036,-0.230344 -0.01251,-0.460688 -0.0136,-0.691035 -0.0057,-0.430396 -0.0042,-0.856092 -0.0042,-1.127701 z"
       id="path135"
       style="fill:#f58120;stroke-width:0.0522325" />
    <path
       class="cls-2"
       d="m 18.684174,4.9799162 a 10.70767,10.70767 0 0 1 0.0277,-1.121432 c 0.01877,-0.3024268 0.0914,-0.5928387 0.287273,-0.8357198 a 0.46278029,0.46278029 0 0 1 0.16767,-0.1425962 1.8803714,1.8803714 0 0 1 1.529364,-0.033955 c 0.320192,0.1290168 0.478976,0.3896566 0.551054,0.7114082 a 2.0469933,2.0469933 0 0 1 0.05486,0.4915084 c -0.0084,0.4915082 -0.01099,0.9830172 -0.03028,1.4740019 a 3.5841968,3.5841968 0 0 1 -0.09819,0.7615513 c -0.09246,0.3515251 -0.301384,0.5771696 -0.650293,0.6988712 -0.373986,0.132148 -0.750581,0.1300592 -1.130837,0.061637 -0.339506,-0.060588 -0.522321,-0.2909353 -0.60223,-0.6105982 a 2.037069,2.037069 0 0 1 -0.05956,-0.4251727 c -0.01251,-0.3436896 -0.03028,-0.6863337 -0.04653,-1.0295034 z m 1.874105,0.028727 c -0.0051,-0.3734624 -0.0261,-0.6722314 -0.05221,-0.9710026 A 0.63567,0.63567 0 0 0 20.453873,3.8375911 0.53903982,0.53903982 0 0 0 20.16816,3.5487437 c -0.114389,-0.052233 -0.216245,-0.00835 -0.324362,0.030295 -0.275265,0.098198 -0.417863,0.3050384 -0.465919,0.5745588 -0.104472,0.5745566 -0.04227,1.1491145 0.05221,1.7236725 0.02926,0.1755013 0.144166,0.2836226 0.306609,0.3400339 a 0.66126395,0.66126395 0 0 0 0.422558,0.00575 c 0.205796,-0.064766 0.365629,-0.2533276 0.37085,-0.4554673 0.0042,-0.2768324 0.03761,-0.5541869 0.02876,-0.7589389 z"
       id="path137"
       style="fill:#f58120;stroke-width:0.0522325" />
    <path
       class="cls-2"
       d="M 12.723918,4.8942563 V 2.9898578 c 0,-0.034998 0,-0.069469 0,-0.1044665 0,-0.048054 0.02193,-0.06529 0.06896,-0.074171 a 6.2276856,6.2276856 0 0 1 0.662309,-0.072603 q 0.261164,-0.020889 0.522326,-0.022982 a 10.218251,10.218251 0 0 1 1.378418,0.074693 c 0.09194,0.012023 0.104462,0.024031 0.104462,0.1138666 0,0.2350477 0,0.4700925 0,0.7046174 0,0.086706 -0.01151,0.099241 -0.09925,0.1008094 -0.173933,0.00259 -0.347344,0.020889 -0.522321,0.026634 -0.313397,0.010446 -0.624184,0.038131 -0.93653,0.052234 a 0.11804555,0.11804555 0 0 0 -0.121177,0.09454 0.73804577,0.73804577 0 0 0 -0.01668,0.3614498 c 0.02193,0.1102101 0.06529,0.1452063 0.179154,0.1535647 a 5.3956213,5.3956213 0 0 0 0.574559,0 c 0.100289,-0.00417 0.104472,-0.00366 0.107079,0.09454 0.0029,0.2695202 0,0.5390398 0,0.8085601 a 0.08879531,0.08879531 0 0 1 -0.09193,0.1013306 c -0.172365,0.019845 -0.344734,0.038131 -0.517617,0.056936 -0.01726,0 -0.03444,0 -0.05221,0.00316 -0.14469,0.014626 -0.147818,0.02037 -0.156699,0.1640098 -0.02718,0.3995788 -0.0266,0.7996805 -0.0402,1.2013488 0,0.034997 0,0.069469 -0.0029,0.1044645 0,0.04753 -0.02351,0.069469 -0.07155,0.072081 -0.09976,0.00575 -0.199525,0.018803 -0.299295,0.020889 q -0.253845,0.00467 -0.508745,0 c -0.156654,-0.00367 -0.16867,-0.017234 -0.169194,-0.1749762 V 4.8942807 Z"
       id="path139"
       style="fill:#f58120;stroke-width:0.0522325" />
    <path
       class="cls-2"
       d="m 24.063601,11.092169 c 0.04286,-0.01567 0.04078,-0.05223 0.04804,-0.0867 0.104472,-0.440321 0.187518,-0.883775 0.261164,-1.3298404 0.06947,-0.4288304 0.129015,-0.8592261 0.224074,-1.283354 0.0261,-0.1154346 0.02143,-0.13685 0.167147,-0.1159563 0.173935,0.025595 0.347343,0.011487 0.522328,0.019325 0.03444,0 0.06947,0 0.104461,0 0.08514,0.00623 0.100809,0.022986 0.08462,0.1044644 q -0.05221,0.2611625 -0.104472,0.5223248 c -0.246538,1.1491155 -0.54165,2.2909215 -0.855564,3.4254105 -0.04386,0.156698 -0.02926,0.122225 -0.174985,0.133715 a 3.6756038,3.6756038 0 0 1 -0.546876,0 c -0.173935,-0.01149 -0.179674,-0.0141 -0.221983,-0.174978 A 21.965871,21.965871 0 0 1 23.091007,9.9853633 C 23.012141,9.4630374 22.952594,8.9407117 22.908191,8.418387 c -0.0104,-0.1227471 -0.0064,-0.1232699 0.114914,-0.1566978 0.121701,-0.033432 0.250716,-0.017757 0.376078,-0.022986 0.04753,0 0.09558,0 0.143632,0 0.196923,0 0.199534,0.00311 0.21311,0.2052734 0.01201,0.1817697 0.02092,0.3656279 0.02769,0.5468749 a 11.547047,11.547047 0 0 0 0.242362,1.9770035 0.22982319,0.22982319 0 0 0 0.03761,0.124313 z"
       id="path141"
       style="fill:#f58120;stroke-width:0.0522325" />
    <path
       class="cls-2"
       d="m 18.639772,10.336365 c -0.02035,-0.6790228 -0.0051,-1.3428993 -0.03135,-2.007297 -0.0051,-0.1441623 0,-0.1441623 0.147294,-0.1681888 a 2.2000346,2.2000346 0 0 1 0.636191,0.00729 c 0.02977,0.00369 0.05853,0.015665 0.08827,0.020892 a 0.07782648,0.07782648 0 0 1 0.07417,0.088797 c 0,0.021935 0,0.043353 0,0.065286 -0.0073,1.0086103 0.0029,2.0166978 0.0089,3.0253098 0,0.02193 0,0.04336 0,0.06529 0.0064,0.09611 0.0079,0.09768 0.109691,0.09872 0.451809,0.0063 0.9031,0.02509 1.354393,0.04858 0.119084,0.0063 0.118041,0.0067 0.119609,0.128492 0,0.169233 0.0051,0.338989 0.0079,0.508222 0,0.0303 0,0.0611 0,0.09141 -0.0088,0.153563 -0.03135,0.173411 -0.18856,0.174978 -0.425693,0.0037 -0.851393,0.0057 -1.277604,0.01828 -0.329589,0.01 -0.660222,-0.0079 -0.992423,-0.01567 -0.100799,0 -0.107606,-0.01 -0.104472,-0.116477 0.0036,-0.291459 0,-0.582915 0.01726,-0.873851 0.02242,-0.390178 0.0084,-0.782445 0.03085,-1.160085 z"
       id="path143"
       style="fill:#f58120;stroke-width:0.0522325" />
    <path
       class="cls-2"
       d="m 32.99014,9.6004072 c 0.04753,-0.030822 0.05696,-0.084611 0.07732,-0.1316249 0.148344,-0.3431689 0.25176,-0.703051 0.378688,-1.0545758 0.03711,-0.1044665 0.09141,-0.1373718 0.196392,-0.1488628 a 4.4596143,4.4596143 0 0 1 0.507701,-0.019841 c 0.200052,0 0.200052,0 0.132676,0.1963946 -0.150954,0.4356188 -0.330115,0.8602695 -0.518676,1.2807411 -0.299288,0.6659656 -0.626785,1.3193956 -0.909364,1.9926736 q -0.14103,0.336898 -0.271613,0.679023 a 0.11856786,0.11856786 0 0 1 -0.132148,0.09245 c -0.204231,-0.0037 -0.408982,0.0032 -0.613211,0.0047 -0.146251,0 -0.149379,-0.0025 -0.09976,-0.146772 0.169758,-0.493075 0.358843,-0.978838 0.552098,-1.462512 0.05221,-0.13685 0.108121,-0.274743 0.16558,-0.411071 a 0.2611627,0.2611627 0 0 0 0.0088,-0.18856 C 32.353414,9.8975877 32.192538,9.5314375 32.038975,9.1621528 A 7.7074334,7.7074334 0 0 1 31.752724,8.3786639 c -0.02876,-0.09872 -0.02819,-0.1044655 0.06896,-0.1149118 a 2.3504643,2.3504643 0 0 1 0.558366,-0.0188 c 0.108648,0.013581 0.118049,0.024027 0.146776,0.1316258 a 8.3310897,8.3310897 0 0 0 0.398009,1.1297899 c 0.01726,0.032906 0.02718,0.073124 0.06529,0.094016 z"
       id="path145"
       style="fill:#f58120;stroke-width:0.0522325" />
    <path
       class="cls-2"
       d="m 22.515427,10.129524 c -0.04753,0.897356 -0.02092,1.571155 0.0029,2.245999 0.0036,0.104472 -0.01467,0.130582 -0.124835,0.135805 -0.29146,0.01253 -0.582392,0 -0.87385,-0.0032 -0.05587,0 -0.07732,-0.02455 -0.07468,-0.0794 0.0042,-0.09976 0.0029,-0.200049 0.0084,-0.299815 0.0266,-0.460689 0.01,-0.921381 0,-1.382072 -0.01201,-0.712975 -0.0261,-1.4259496 -0.0051,-2.138923 0.0036,-0.1175238 0.01775,-0.234002 0.02559,-0.3515259 0.0042,-0.063719 0.03343,-0.094542 0.100289,-0.08723 a 7.9779984,7.9779984 0 0 0 0.872807,0.025078 c 0.06529,0 0.08201,0.027688 0.08044,0.086705 -0.0057,0.225644 -0.01201,0.451812 -0.01309,0.6790225 5.88e-4,0.4627811 0.0015,0.9276503 0.0015,1.1694874 z"
       id="path147"
       style="fill:#f58120;stroke-width:0.0522325" />
    <path
       class="cls-3"
       d="m 16.294532,14.961033 c -0.305035,0.03134 -0.305035,0.03134 -0.442929,-0.22721 -0.03861,-0.07312 -0.07625,-0.146775 -0.117525,-0.217811 a 0.16192088,0.16192088 0 0 0 -0.193262,-0.05484 c -0.03394,0.01775 -0.03185,0.04858 -0.03236,0.07887 0,0.112823 -0.0029,0.226168 0,0.338989 0,0.06685 -0.02142,0.09245 -0.08932,0.09141 -0.261159,-0.0041 -0.213629,0.02351 -0.215196,-0.199006 -0.0029,-0.356749 0,-0.712975 0,-1.069722 0,-0.147818 0,-0.149385 0.153565,-0.148864 a 4.7489823,4.7489823 0 0 1 0.495161,0.01202 c 0.199008,0.02194 0.340556,0.123792 0.384958,0.281534 0.05695,0.203707 0,0.392789 -0.162968,0.510833 -0.06163,0.04388 -0.06163,0.07625 -0.02718,0.135284 0.08566,0.14625 0.165578,0.295635 0.24758,0.443976 7.2e-4,0.0032 -5.1e-4,0.0079 -5.1e-4,0.02454 z m -0.786621,-0.966824 v 0 c 0,0.05223 0,0.104472 0,0.156699 0,0.03396 0.0146,0.0611 0.05221,0.06372 a 0.55418723,0.55418723 0 0 0 0.28101,-0.02977 0.20893016,0.20893016 0 0 0 0.115957,-0.21363 0.17080042,0.17080042 0 0 0 -0.145726,-0.160353 0.56515606,0.56515606 0 0 0 -0.10186,-0.01567 c -0.232437,-0.0025 -0.199007,-0.01253 -0.202143,0.186994 z"
       id="path149"
       style="fill:#da4446;stroke-width:0.0522325" />
    <path
       class="cls-3"
       d="m 14.447594,14.97148 c -0.117524,0 -0.234523,0 -0.352047,0 -0.06161,0 -0.09664,-0.01306 -0.09611,-0.08566 q 0.0029,-0.618955 0,-1.23791 c 0,-0.06634 0.0256,-0.09455 0.09141,-0.09403 0.230345,0 0.46069,0 0.69051,0 0.08932,0 0.09403,0.01 0.0982,0.0982 v 0.01359 c 0.0029,0.144686 0.0029,0.14573 -0.140504,0.146775 -0.117523,0 -0.23453,0 -0.352047,0 -0.06112,0 -0.08358,0.02509 -0.08305,0.08513 0,0.266909 -0.01984,0.213631 0.208932,0.219377 0.06947,0 0.138937,0 0.208931,0 0.04436,0 0.06271,0.02193 0.06422,0.0632 0,0.0084 0,0.01723 0,0.02613 0.0104,0.156697 0.0051,0.161922 -0.14886,0.162444 -0.08252,0 -0.165054,0 -0.24758,0 -0.05905,0 -0.08358,0.02036 -0.08827,0.08254 -0.01934,0.265865 -0.02143,0.265341 0.242354,0.265341 0.09141,0 0.182814,0.0037 0.273704,0 0.06479,-0.0032 0.08513,0.02665 0.08254,0.08462 0,0.01306 0,0.02613 0,0.03918 0,0.129013 0,0.129536 -0.128497,0.130058 -0.107078,0.0011 -0.215717,0.0011 -0.323837,0.0011 z"
       id="path151"
       style="fill:#da4446;stroke-width:0.0522325" />
    <path
       class="cls-3"
       d="m 19.691216,14.257984 c 0,-0.195873 0,-0.391222 0,-0.587093 0,-0.10969 0.0051,-0.116479 0.104472,-0.117524 q 0.338464,-0.0033 0.679021,0 c 0.08723,0 0.09193,0.0104 0.09558,0.100289 0,0.0088 0,0.01724 0,0.02613 0,0.129537 0,0.130059 -0.129533,0.131103 -0.117005,0 -0.234523,0 -0.352046,0 -0.06213,0 -0.09558,0.01619 -0.09455,0.08774 0.0029,0.261163 -0.01675,0.212064 0.200568,0.216766 0.06479,0 0.130583,0.0037 0.195356,0 0.06479,-0.0037 0.0935,0.02873 0.09035,0.09245 0,0.0303 0,0.0611 0,0.09141 0,0.04858 -0.02452,0.06948 -0.07312,0.06895 -0.104461,0 -0.208931,0 -0.313396,0 -0.09088,0 -0.09768,0.0067 -0.09715,0.09663 0,0.302426 -0.03394,0.243926 0.230344,0.250193 0.09088,0 0.182291,0.0032 0.273698,0 0.06529,-0.0025 0.09977,0.01724 0.09299,0.08723 0,0.01724 0,0.03447 0,0.05223 0,0.113345 0,0.11439 -0.117,0.114912 q -0.332718,0 -0.664918,0 c -0.118574,0 -0.119617,0 -0.120135,-0.124836 -7.18e-4,-0.195348 -5.97e-4,-0.391222 -5.97e-4,-0.586572 z"
       id="path153"
       style="fill:#da4446;stroke-width:0.0522325" />
    <path
       class="cls-3"
       d="m 13.219604,14.99603 a 0.77042996,0.77042996 0 0 1 -0.476357,-0.147819 c -0.04545,-0.03239 -0.05221,-0.06372 -0.01251,-0.104461 0.01826,-0.01879 0.03294,-0.04021 0.05221,-0.06008 0.07104,-0.08357 0.07155,-0.08462 0.166105,-0.02925 a 0.60746442,0.60746442 0 0 0 0.218855,0.07992 0.31339525,0.31339525 0 0 0 0.15408,-0.01515 0.1337153,0.1337153 0 0 0 0.09611,-0.112299 0.12065717,0.12065717 0 0 0 -0.06844,-0.129537 c -0.05696,-0.03134 -0.116999,-0.05641 -0.176545,-0.08305 -0.05954,-0.02665 -0.120659,-0.04962 -0.179156,-0.07836 -0.181246,-0.08931 -0.265866,-0.224077 -0.24863,-0.403234 0.01775,-0.187515 0.13215,-0.299816 0.30295,-0.351526 a 0.64037093,0.64037093 0 0 1 0.582391,0.09558 c 0.05221,0.03604 0.05795,0.07 0.01202,0.114389 a 0.34734638,0.34734638 0 0 0 -0.04861,0.06111 c -0.03501,0.05223 -0.07104,0.06215 -0.127448,0.0235 a 0.37764126,0.37764126 0 0 0 -0.261158,-0.06215 0.15669762,0.15669762 0 0 0 -0.149384,0.104471 c -0.0141,0.06215 0.01308,0.111775 0.09506,0.151997 0.08201,0.04021 0.175503,0.07521 0.261165,0.113346 0.0397,0.01672 0.07993,0.03396 0.118041,0.05223 0.285195,0.149385 0.248105,0.528594 0.03236,0.674322 a 0.57455792,0.57455792 0 0 1 -0.343165,0.106032 z"
       id="path155"
       style="fill:#da4446;stroke-width:0.0522325" />
    <path
       class="cls-3"
       d="m 16.961024,14.658084 a 0.21519806,0.21519806 0 0 0 0.04962,-0.117523 l 0.208931,-0.83572 c 0.03868,-0.152517 0.03868,-0.153563 0.201619,-0.151474 a 0.19273808,0.19273808 0 0 1 0.125362,0.01828 0.16975574,0.16975574 0 0 1 -0.01309,0.10185 q -0.178118,0.593363 -0.356749,1.185679 c -0.03344,0.110216 -0.03394,0.111775 -0.151995,0.110732 -0.08254,0 -0.180204,0.0303 -0.242885,-0.0141 -0.06271,-0.0444 -0.06579,-0.156697 -0.09088,-0.237659 Q 16.530083,14.19582 16.374428,13.669838 c -0.03185,-0.104471 -0.02718,-0.111775 0.07783,-0.116478 0.208931,-0.01 0.208931,-0.01 0.261163,0.193783 q 0.100289,0.3907 0.200577,0.783488 a 0.30399339,0.30399339 0 0 0 0.04702,0.127447 z"
       id="path157"
       style="fill:#da4446;stroke-width:0.0522325" />
    <path
       class="cls-3"
       d="m 18.34257,14.265297 a 0.78348809,0.78348809 0 0 1 0.130581,-0.45599 c 0.200051,-0.294593 0.612168,-0.370853 0.883256,-0.163489 0.0726,0.05536 0.07312,0.05588 0.01151,0.129014 a 0.34421242,0.34421242 0 0 0 -0.03394,0.03917 c -0.0402,0.06424 -0.08305,0.07364 -0.147817,0.02613 a 0.31809617,0.31809617 0 0 0 -0.458081,0.126924 0.62208955,0.62208955 0 0 0 -0.0084,0.588661 c 0.08931,0.183336 0.298771,0.23348 0.478968,0.126404 0.09768,-0.05797 0.09768,-0.05797 0.173417,0.02717 a 0.27944408,0.27944408 0 0 0 0.0266,0.02873 c 0.04753,0.04178 0.04177,0.07887 -0.0051,0.117001 a 0.57455792,0.57455792 0 0 1 -0.330634,0.139461 c -0.402194,0.02613 -0.691043,-0.229301 -0.719769,-0.637758 -0.0021,-0.0303 -5.1e-4,-0.06111 -5.1e-4,-0.09141 z"
       id="path159"
       style="fill:#da4446;stroke-width:0.0522325" />
    <path
       class="cls-3"
       d="m 17.741899,14.259028 c 0,-0.199528 0,-0.399578 0,-0.599629 0,-0.09611 0.0084,-0.101329 0.104462,-0.104471 h 0.0261 c 0.173409,-0.0033 0.173935,-0.0033 0.173935,0.16871 0,0.373463 0,0.747448 0,1.12091 0,0.126404 0,0.127971 -0.130582,0.127448 -0.193264,0 -0.172368,0.01932 -0.173418,-0.175501 -7.18e-4,-0.180724 -5.11e-4,-0.358838 -5.11e-4,-0.537473 z"
       id="path161"
       style="fill:#da4446;stroke-width:0.0522325" />
    <path
       class="cls-1"
       d="m 6.7171746,8.2026643 a 0.08357207,0.08357207 0 0 1 0.076258,-0.00885 c 0.2486245,0.091932 0.4575556,0.2329575 0.5651553,0.4868065 a 0.16609948,0.16609948 0 0 0 0.1478187,0.117001 4.3070951,4.3070951 0 0 0 1.1292676,0.043878 2.6466227,2.6466227 0 0 0 0.8033303,-0.2057963 c 0.035532,-0.01619 0.072093,-0.029255 0.1081216,-0.043352 0.00287,0 0.00637,0.00369 0.024013,0.013054 -0.079397,0.2125822 -0.2611646,0.3280158 -0.4565114,0.4507617 a 0.27892176,0.27892176 0 0 0 0.1608756,0.0188 1.3146931,1.3146931 0 0 1 0.6628342,0.1619201 0.74588068,0.74588068 0 0 1 0.2731715,0.2366141 0.47009287,0.47009287 0 0 1 0.08358,0.2569838 c 0.0029,0.121179 -0.05221,0.1880376 -0.176026,0.1958718 -0.08513,0.00571 -0.1707995,0 -0.2554185,0 -0.00945,0.065285 0.027686,0.100814 0.048037,0.142595 a 1.4452743,1.4452743 0 0 1 0.1170005,0.261162 c 0.02718,0.104472 0.0042,0.173934 -0.092964,0.215721 a 0.86914947,0.86914947 0 0 1 -0.6351498,0.0235 0.24758223,0.24758223 0 0 1 -0.1614012,-0.20423 c -0.024013,-0.11909 0.013089,-0.232956 0.01516,-0.348391 -0.035532,-0.028726 -0.068452,-0.01042 -0.099758,0 A 0.79654623,0.79654623 0 0 1 8.7594467,10.05693 0.36562777,0.36562777 0 0 1 8.4303823,9.8380758 0.36562777,0.36562777 0 0 1 8.4575613,9.4437195 0.58813839,0.58813839 0 0 1 8.5740419,9.3214963 0.2387027,0.2387027 0 0 0 8.65501,9.2426291 C 8.622652,9.2123321 8.594393,9.2295741 8.565698,9.2359191 A 2.6210288,2.6210288 0 0 1 7.4933591,9.2541983 C 7.383669,9.2322636 7.3789708,9.2364408 7.328824,9.3450796 A 0.78348809,0.78348809 0 0 1 6.9590161,9.7336893 c -0.036526,0.01828 -0.078869,0.059547 -0.118042,0.02246 -0.039183,-0.037087 0.00504,-0.073646 0.018269,-0.1044644 A 1.8176924,1.8176924 0 0 0 6.9872147,9.2024846 1.274474,1.274474 0 0 0 6.8012651,8.3542276 0.65813001,0.65813001 0 0 1 6.7171735,8.2027539 Z M 9.3340282,9.2509714 A 1.0806913,1.0806913 0 0 0 8.961609,9.3032031 0.65813001,0.65813001 0 0 0 8.6842527,9.4666904 c -0.094535,0.099241 -0.1248365,0.2198987 -0.078877,0.3076507 0.045957,0.087745 0.1655795,0.1279687 0.3102626,0.098202 A 1.253581,1.253581 0 0 0 9.2514995,9.7362167 c 0.032941,-0.017237 0.066297,-0.043351 0.1081206,-0.012014 a 0.10446508,0.10446508 0 0 1 0.040203,0.115434 c -0.00499,0.029767 -0.014098,0.059019 -0.019342,0.088798 -0.020351,0.1044673 -0.044937,0.2120633 -0.057953,0.3196633 -0.013079,0.107594 0.01516,0.136326 0.1164732,0.169233 0.127447,0.04178 0.2486305,-0.01359 0.3724181,-0.02037 0.035532,0 0.040776,-0.03918 0.024523,-0.07208 C 9.810846,10.272649 9.7884144,10.22041 9.7612587,10.172881 9.702202,10.068404 9.6405858,9.9639397 9.5810397,9.8563421 A 0.28884594,0.28884594 0 0 1 9.545508,9.7732933 0.088273,0.088273 0 0 1 9.6625068,9.6688257 2.7296725,2.7296725 0 0 0 9.9894789,9.752917 c 0.037612,0.00627 0.084089,0.017753 0.1112601,-0.014099 0.02718,-0.031864 0.0036,-0.084091 -0.01309,-0.1222248 A 0.43300775,0.43300775 0 0 0 9.9006614,9.4228128 1.3058134,1.3058134 0 0 0 9.3344571,9.2509675 Z"
       id="path163"
       style="fill:#df5b5c;stroke-width:0.0522325" />
    <path
       class="cls-1"
       d="m 7.2572627,13.265045 a 0.77669783,0.77669783 0 0 1 -0.087229,0.329586 1.3235726,1.3235726 0 0 0 -0.1258785,0.28519 0.37973056,0.37973056 0 0 0 -0.016755,0.0888 c 0,0.06529 0.052205,0.08984 0.1086477,0.05223 a 0.2611627,0.2611627 0 0 0 0.083565,-0.113866 1.5497394,1.5497394 0 0 0 0.100287,-0.389657 c 0.00359,-0.02141 0.00291,-0.04388 0.00728,-0.06477 a 0.09715252,0.09715252 0 0 1 0.099761,-0.08566 c 0.05745,0 0.077837,0.0491 0.074689,0.104461 -0.012015,0.205275 -0.044372,0.40637 -0.1478187,0.588139 -0.069466,0.122224 -0.1702813,0.194305 -0.3207092,0.175501 a 0.19691667,0.19691667 0 0 1 -0.1838572,-0.171321 0.48210633,0.48210633 0 0 1 0.042859,-0.279445 c 0.041771,-0.09507 0.087756,-0.189082 0.127972,-0.284667 0.061631,-0.145208 0.081491,-0.290937 0.00841,-0.440843 -0.031348,-0.06424 -0.014099,-0.111259 0.032356,-0.133193 0.046524,-0.02193 0.093495,-0.0032 0.1258796,0.05745 a 0.59910723,0.59910723 0 0 1 0.070541,0.282056 z"
       id="path165"
       style="fill:#df5b5c;stroke-width:0.0522325" />
  </g>
</svg>
