<svg height="512pt" viewBox="-5 0 511 512" width="512pt" xmlns="http://www.w3.org/2000/svg"><path d="m.5 261.621094c0-138.097656 111.800781-250.082032 249.832031-250.378906 137.996094-.296876 249.601563 109.949218 250.914063 247.9375.660156 69.167968-26.738282 131.925781-71.496094 177.617187-9.058594 9.25-23.515625 10.265625-34.070312 2.769531-40.878907-29.035156-90.84375-46.113281-144.800782-46.113281-53.957031 0-103.921875 17.078125-144.796875 46.113281-10.644531 7.558594-25.148437 6.359375-34.273437-2.976562-44.113282-45.132813-71.308594-106.871094-71.308594-174.96875zm0 0" fill="#7dc3db"/><path d="m429.722656 436.824219c-45.445312 46.382812-108.777344 71.800781-178.84375 71.800781-55.910156 0-107.53125-14.957031-149.199218-45.933594-10.550782-7.84375-20.460938-16.496094-29.644532-25.867187v-150.675781h357.6875zm0 0" fill="#024c67"/><path d="m429.722656 436.824219c-9.769531 9.972656-20.367187 19.128906-31.679687 27.367187-11.804688 8.589844-66.410157 35.03125-81.753907 39.175782-6.707031 1.808593-13.527343 3.347656-20.441406 4.605468-14.589844 2.644532-152.503906-14.304687-194.175781-45.277344v-176.546874h328.050781zm0 0" fill="#025f80"/><path d="m398.039062 357.683594v106.503906c-24.3125 17.695312-51.929687 31.113281-81.753906 39.164062v-145.667968c0-5.644532 4.574219-10.21875 10.21875-10.21875h61.316406c5.644532 0 10.21875 4.574218 10.21875 10.21875zm-112.414062-10.21875h-173.730469c-5.644531 0-10.222656 4.574218-10.222656 10.21875v105.011718c41.671875 30.972657 93.296875 49.304688 149.207031 49.304688 15.351563 0 30.378906-1.390625 44.964844-4.035156v-150.28125c0-5.644532-4.574219-10.21875-10.21875-10.21875zm0 0" fill="#6ad3d8"/><path d="m294.4375 352.527344-44.292969 159.464844c-6.800781-.019532-13.539062-.304688-20.203125-.855469l45.464844-163.671875h10.21875c3.761719 0 7.039062 2.039062 8.8125 5.0625zm42.285156-5.0625-20.4375 73.582031v82.304687c2.847656-.769531 5.671875-1.605468 8.480469-2.46875l42.617187-153.417968zm51.097656 0-40.328124 145.179687c8.09375-3.386719 15.964843-7.1875 23.601562-11.375l26.945312-97.015625v-26.570312c0-5.644532-4.574218-10.21875-10.21875-10.21875zm-91.976562 160.5v-13.339844l-3.886719 14c1.296875-.214844 2.597657-.425781 3.886719-.660156zm-153.292969-160.5-33.476562 120.519531c16.519531 11.375 34.476562 20.816406 53.539062 28l41.257813-148.519531zm81.757813 0-42.984375 154.738281c9.402343 2.710937 19.03125 4.894531 28.855469 6.5l44.789062-161.238281zm0 0" fill="#a3e2e5"/><path d="m341.832031 449.660156h-25.546875v-10.21875h25.546875c2.824219 0 5.109375 2.289063 5.109375 5.109375 0 2.820313-2.285156 5.109375-5.109375 5.109375zm0 0" fill="#7a8c98"/><path d="m377.601562 398.5625h-40.878906c-2.820312 0-5.109375-2.289062-5.109375-5.109375v-10.21875c0-2.824219 2.289063-5.109375 5.109375-5.109375h40.878906c2.820313 0 5.109376 2.285156 5.109376 5.109375v10.21875c0 2.820313-2.289063 5.109375-5.109376 5.109375zm0 0" fill="#fff5f5"/><path d="m455.269531 286.148438c0 10.722656-8.691406 19.417968-19.417969 19.417968h-369.945312c-10.722656 0-19.417969-8.695312-19.417969-19.417968l51.929688-102.195313h304.921875zm0 0" fill="#fd3980"/><path d="m403.339844 183.953125 51.929687 102.195313h-374.035156l51.929687-102.195313zm0 0" fill="#fc5e93"/><path d="m404.171875 194.171875h-306.585937c-5.644532 0-10.21875-4.574219-10.21875-10.21875v-10.21875c0-5.644531 4.574218-10.222656 10.21875-10.222656h306.585937c5.644531 0 10.21875 4.578125 10.21875 10.222656v10.21875c0 5.644531-4.574219 10.21875-10.21875 10.21875zm0 0" fill="#e30048"/><path d="m404.171875 194.171875h-271.839844c-5.644531 0-10.21875-4.574219-10.21875-10.21875v-10.21875c0-5.644531 4.574219-10.222656 10.21875-10.222656h271.839844c5.644531 0 10.21875 4.578125 10.21875 10.222656v10.21875c0 5.644531-4.574219 10.21875-10.21875 10.21875zm0 0" fill="#fd0464"/><path d="m455.269531 286.148438v20.4375c0 11.289062-9.148437 20.441406-20.4375 20.441406-11.289062 0-20.441406-9.152344-20.441406-20.441406 0 11.289062-9.148437 20.441406-20.4375 20.441406s-20.4375-9.152344-20.4375-20.441406c0 11.289062-9.152344 20.441406-20.441406 20.441406-11.289063 0-20.4375-9.152344-20.4375-20.441406 0 11.289062-9.152344 20.441406-20.441407 20.441406-11.289062 0-20.4375-9.152344-20.4375-20.441406 0 11.289062-9.152343 20.441406-20.4375 20.441406-11.289062 0-20.441406-9.152344-20.441406-20.441406 0 11.289062-9.148437 20.441406-20.4375 20.441406-11.289062 0-20.441406-9.152344-20.441406-20.441406 0 11.289062-9.148438 20.441406-20.4375 20.441406s-20.441406-9.152344-20.441406-20.441406c0 11.289062-9.148438 20.441406-20.4375 20.441406-11.289063 0-20.4375-9.152344-20.4375-20.441406 0 11.289062-9.152344 20.441406-20.441406 20.441406-11.289063 0-20.4375-9.152344-20.4375-20.441406 0 11.289062-9.152344 20.441406-20.441407 20.441406-11.289062 0-20.4375-9.152344-20.4375-20.441406v-20.4375zm0 0" fill="#ffa655"/><path d="m169.121094 286.148438h40.878906v20.4375c0 11.289062-9.148438 20.441406-20.4375 20.441406s-20.441406-9.152344-20.441406-20.441406zm-81.753906 20.4375c0 11.289062 9.148437 20.441406 20.4375 20.441406 11.289062 0 20.441406-9.152344 20.441406-20.441406v-20.4375h-40.878906zm245.269531 0c0 11.289062 9.148437 20.441406 20.4375 20.441406 11.289062 0 20.441406-9.152344 20.441406-20.441406v-20.4375h-40.878906zm-81.757813 0c0 11.289062 9.152344 20.441406 20.441406 20.441406 11.285157 0 20.4375-9.152344 20.4375-20.441406v-20.4375h-40.878906zm163.511719-20.4375v20.4375c0 11.289062 9.152344 20.441406 20.441406 20.441406 11.289063 0 20.4375-9.152344 20.4375-20.441406v-20.4375zm0 0" fill="#fff2b4"/><path d="m373.515625 122.632812c0 67.730469-54.90625 122.636719-122.636719 122.636719-67.730468 0-122.632812-54.90625-122.632812-122.636719 0-67.726562 54.902344-122.632812 122.632812-122.632812 67.730469 0 122.636719 54.90625 122.636719 122.632812zm0 0" fill="#fda800"/><path d="m373.515625 122.632812c0 61.832032-45.761719 112.96875-105.261719 121.40625-59.5-8.4375-105.261718-59.574218-105.261718-121.40625 0-61.828124 45.761718-112.964843 105.261718-121.402343 59.5 8.4375 105.261719 59.574219 105.261719 121.402343zm0 0" fill="#ffa655"/><path d="m342.855469 122.632812c0 31.121094-15.453125 58.628907-39.105469 75.273438-3.914062 2.753906-23.757812 12.230469-29.847656 13.800781-7.359375 1.894531-15.074219 2.902344-23.023438 2.902344-10.765625 0-21.097656-1.847656-30.699218-5.246094-5.207032-1.84375-25.25-13.46875-29.84375-17.488281-19.265626-16.859375-31.433594-41.628906-31.433594-69.242188 0-50.796874 41.179687-91.972656 91.976562-91.972656s91.976563 41.175782 91.976563 91.972656zm0 0" fill="#fc6930"/><path d="m237.664062 49.742188v54.996093c0 9.90625-4.449218 18.769531-11.457031 24.710938-3.820312 3.242187-6.023437 7.996093-6.023437 13.003906v66.902344c-11.078125-3.917969-21.179688-9.898438-29.847656-17.484375v-49.417969c0-5.007813-2.203126-9.761719-6.023438-13.003906-7.007812-5.941407-11.457031-14.804688-11.457031-24.710938v-54.996093c0-3.535157 2.863281-6.398438 6.398437-6.398438h4.261719c3.53125 0 6.394531 2.863281 6.394531 6.398438v41.355468c0 1.882813 1.527344 3.410156 3.414063 3.410156 1.882812 0 3.410156-1.527343 3.410156-3.410156v-41.355468c0-3.535157 2.863281-6.398438 6.394531-6.398438h4.265625c3.53125 0 6.394531 2.863281 6.394531 6.398438v41.355468c0 1.882813 1.527344 3.410156 3.410157 3.410156 1.882812 0 3.410156-1.527343 3.410156-3.410156v-41.355468c0-3.535157 2.863281-6.398438 6.394531-6.398438h4.265625c3.53125 0 6.394531 2.863281 6.394531 6.398438zm57.128907-6.398438h-11.9375c-18.835938 0-34.109375 15.273438-34.109375 34.109375v29.84375c0 12.460937 6.683594 23.351563 16.660156 29.304687 5.214844 3.109376 8.496094 8.65625 8.496094 14.730469v60.375c10.855468-2.796875 20.929687-7.53125 29.84375-13.804687v-46.570313c0-6.078125 3.28125-11.621093 8.496094-14.730469 9.976562-5.953124 16.660156-16.84375 16.660156-29.304687v-29.84375c0-18.835937-15.273438-34.109375-34.109375-34.109375zm0 0" fill="#fff2b4"/><path d="m207.390625 142.453125v61.246094c-6.132813-3.300781-11.851563-7.273438-17.050781-11.828125v-49.417969c0-5.007813-2.207032-9.761719-6.027344-13.003906-7.007812-5.941407-11.453125-14.804688-11.453125-24.710938v-54.996093c0-3.535157 2.863281-6.398438 6.394531-6.398438h4.261719c3.535156 0 6.398437 2.863281 6.398437 6.398438v54.996093c0 9.90625 4.445313 18.769531 11.453126 24.710938 3.820312 3.242187 6.023437 7.996093 6.023437 13.003906zm74.5-16.085937c-9.976563-5.949219-16.65625-16.84375-16.65625-29.304688v-19.609375c0-18.074219 14.054687-32.851563 31.832031-34.023437-.753906-.050782-1.507812-.085938-2.273437-.085938h-11.9375c-18.835938 0-34.109375 15.273438-34.109375 34.109375v29.84375c0 12.460937 6.683594 23.351563 16.660156 29.304687 5.214844 3.109376 8.496094 8.65625 8.496094 14.730469v60.375c5.730468-1.476562 11.242187-3.496093 16.484375-5.992187v-64.617188c0-6.074218-3.277344-11.617187-8.496094-14.730468zm0 0" fill="#ffdea4"/></svg>